<?xml version="1.0" encoding="UTF-8" standalone="no"?>
<!DOCTYPE svg PUBLIC "-//W3C//DTD SVG 1.1//EN" "http://www.w3.org/Graphics/SVG/1.1/DTD/svg11.dtd">
<svg width="44" height="44" viewBox="0 0 44 44" version="1.1" xmlns="http://www.w3.org/2000/svg" xmlns:xlink="http://www.w3.org/1999/xlink" xml:space="preserve" xmlns:serif="http://www.serif.com/" style="fill-rule:evenodd;clip-rule:evenodd;stroke-linejoin:round;stroke-miterlimit:2;">
    <g transform="matrix(1,0,0,1,-13986,-3782)">
        <g id="Icons" transform="matrix(0.716502,0,0,1.15805,4855.52,-407.468)">
            <rect x="12464" y="3445" width="709" height="348" style="fill:none;"/>
            <g transform="matrix(0.0575767,0,0,0.0356237,12732.4,3618.45)">
                <path id="GitBook_logo_blue" d="M666.026,768.677C683.231,768.677 697.227,782.674 697.227,799.871C697.227,817.068 683.231,831.064 666.026,831.064C648.829,831.064 634.833,817.068 634.833,799.871C634.833,782.674 648.829,768.677 666.026,768.677M1155.96,575.451C1138.75,575.451 1124.76,561.453 1124.76,544.256C1124.76,527.052 1138.75,513.055 1155.96,513.055C1173.15,513.055 1187.15,527.052 1187.15,544.256C1187.15,561.453 1173.15,575.451 1155.96,575.451M1155.96,447.647C1102.69,447.647 1059.35,490.987 1059.35,544.256C1059.35,554.629 1061.07,564.958 1064.47,574.997L745.328,744.879C727.196,718.751 697.807,703.262 666.026,703.262C629.205,703.262 595.635,724.327 579.396,757.265L292.68,606.109C262.392,590.182 239.715,540.292 242.121,494.886C243.368,471.199 251.558,452.815 264.017,445.716C271.933,441.223 281.453,441.617 291.543,446.904L293.459,447.914C369.419,487.936 618.059,618.895 628.522,623.758C644.679,631.229 653.663,634.258 681.181,621.211L1195.14,353.91C1202.67,351.067 1211.45,343.849 1211.45,332.888C1211.45,317.683 1195.73,311.689 1195.69,311.689C1166.47,297.671 1121.53,276.635 1077.7,256.119C984.033,212.259 877.861,162.547 831.23,138.132C790.977,117.06 758.575,134.821 752.798,138.414L741.571,143.969C531.727,247.743 250.898,386.826 234.91,396.553C206.279,413.974 188.548,448.679 186.253,491.768C182.667,560.072 217.514,631.274 267.322,657.402L570.494,813.756C577.324,861.062 618.045,896.481 666.026,896.481C718.805,896.481 761.834,853.935 762.629,801.342L1096.54,620.38C1113.47,633.613 1134.46,640.866 1155.96,640.866C1209.23,640.866 1252.57,597.525 1252.57,544.256C1252.57,490.987 1209.23,447.647 1155.96,447.647" style="fill:rgb(44,117,255);"/>
            </g>
        </g>
    </g>
</svg>
