<?xml version="1.0" encoding="UTF-8" standalone="no"?>
<!DOCTYPE svg PUBLIC "-//W3C//DTD SVG 1.1//EN" "http://www.w3.org/Graphics/SVG/1.1/DTD/svg11.dtd">
<svg width="44" height="44" viewBox="0 0 44 44" version="1.1" xmlns="http://www.w3.org/2000/svg" xmlns:xlink="http://www.w3.org/1999/xlink" xml:space="preserve" xmlns:serif="http://www.serif.com/" style="fill-rule:evenodd;clip-rule:evenodd;stroke-linejoin:round;stroke-miterlimit:2;">
    <rect id="Icons" x="-100" y="-200" width="508" height="403" style="fill:none;"/>
    <g>
        <path id="github" d="M16.796,41.925C16.796,41.414 16.778,40.06 16.768,38.263C10.927,39.563 9.694,35.376 9.694,35.376C8.739,32.888 7.362,32.226 7.362,32.226C5.455,30.889 7.506,30.917 7.506,30.917C9.614,31.069 10.723,33.137 10.723,33.137C12.596,36.427 15.637,35.478 16.835,34.926C17.026,33.534 17.568,32.585 18.168,32.047C13.505,31.504 8.602,29.656 8.602,21.405C8.602,19.055 9.421,17.133 10.764,15.627C10.549,15.083 9.827,12.894 10.97,9.929C10.97,9.929 12.734,9.35 16.745,12.136C18.419,11.659 20.216,11.419 22.003,11.411C23.786,11.419 25.582,11.659 27.26,12.136C31.269,9.35 33.03,9.929 33.03,9.929C34.176,12.893 33.455,15.082 33.238,15.627C34.584,17.133 35.396,19.055 35.396,21.405C35.396,29.677 30.486,31.497 25.808,32.03C26.563,32.695 27.233,34.009 27.233,36.018C27.233,38.897 27.206,41.22 27.206,41.925C27.206,42.502 27.585,43.171 28.651,42.96C36.989,40.108 43,32.042 43,22.533C43,10.64 33.597,1 21.999,1C10.403,1 1,10.64 1,22.533C1.001,32.045 7.018,40.116 15.363,42.963C16.412,43.16 16.796,42.495 16.796,41.925Z"/>
    </g>
</svg>
