<?xml version="1.0" encoding="UTF-8" standalone="no"?>
<!DOCTYPE svg PUBLIC "-//W3C//DTD SVG 1.1//EN" "http://www.w3.org/Graphics/SVG/1.1/DTD/svg11.dtd">
<svg width="44" height="44" viewBox="0 0 44 44" version="1.1" xmlns="http://www.w3.org/2000/svg" xmlns:xlink="http://www.w3.org/1999/xlink" xml:space="preserve" xmlns:serif="http://www.serif.com/" style="fill-rule:evenodd;clip-rule:evenodd;stroke-linejoin:round;stroke-miterlimit:2;">
    <g transform="matrix(1,0,0,1,-14086,-3782)">
        <g id="Icons" transform="matrix(0.716502,0,0,1.15805,4855.52,-407.468)">
            <rect x="12464" y="3445" width="709" height="348" style="fill:none;"/>
            <g transform="matrix(0.352126,0,0,7.847,11765.9,-4789.44)">
                <g>
                    <g transform="matrix(1.11976,0,0,0.0310892,3196.7,1072.37)">
                        <path d="M88,80L99,80L99,124L0,124L0,80L11,80L11,113L88,113L88,80Z" style="fill:rgb(187,187,187);"/>
                    </g>
                    <g transform="matrix(1.11976,0,0,0.0310892,3196.7,1071.38)">
                        <path d="M22.988,76.73L77.013,88.085L79.284,77.285L25.259,65.925L22.988,76.73ZM30.137,50.861L80.183,74.169L84.845,64.16L34.798,40.852L30.137,50.861ZM43.985,26.308L86.413,61.639L93.479,53.154L51.051,17.824L43.985,26.308ZM71.372,0.192L62.512,6.782L95.46,51.082L104.32,44.493L71.372,0.192ZM22,102L77,102L77,91L22,91L22,102Z" style="fill:rgb(245,128,37);fill-rule:nonzero;"/>
                    </g>
                </g>
            </g>
        </g>
    </g>
</svg>
